<?xml version="1.0" encoding="utf-8" ?><svg xmlns="http://www.w3.org/2000/svg" xmlns:xlink="http://www.w3.org/1999/xlink" width="1024" height="1024" viewBox="0 0 1024 1024"><path fill="none" d="M0 0L1024 0L1024 1024L0 1024L0 0Z"/><path fill="#4596B2" d="M757.352 38.0637C765.627 39.2813 776.588 41.9601 785.283 43.5816C787.634 58.3645 790.652 72.8611 792.854 87.6747C800.625 89.9422 810.679 93.9627 818.449 96.8224C826.226 91.8847 833.966 86.8887 841.669 81.8349C846.11 78.947 851.193 75.4041 855.899 73.0956C862.238 76.8157 872.795 82.6911 878.35 87.1578C873.853 101.926 869.779 116.819 866.131 131.819C873.11 139.023 880.044 146.271 886.932 153.562C901.811 150.474 917.299 148.511 931.642 145.35C936.276 152.488 941.375 160.519 945.644 167.815C936.404 179.571 927.421 191.525 918.7 203.671C922.033 212.397 924.54 220.858 927.715 229.524C934.443 230.907 965.862 236.952 970.231 239.068C972.406 241.987 974.709 260.558 975.423 265.536C972.141 267.779 966.598 270.522 962.934 272.504C953.586 277.561 944.214 282.158 934.971 287.469C934.955 298.096 934.769 306.733 933.657 317.302C945.044 325.769 959.585 334.626 971.658 343.107C969.604 351.109 967.329 362.852 964.527 370.337C956.799 372.587 927.205 373.839 918.285 374.146C914.754 380.765 909.656 393.116 906.204 400.382C912.419 409.744 921.611 428.063 927.06 438.335C923.073 444.143 914.382 453.286 909.358 458.819C898.575 454.964 879.085 448.469 869.233 443.862C860.931 450.728 853.657 456.762 845.024 463.292C846.804 475.664 848.396 494.738 849.187 507.078C844.767 510.07 830.182 516.914 825.05 518.671C815.057 508.861 803.331 498.421 792.982 488.598C783.386 491.555 775.325 493.259 765.452 495.238C761.978 508.626 756.282 524.623 751.9 538.045C741.807 538.543 731.697 538.576 721.601 538.144C717.201 526.566 711.049 509.598 705.767 498.757C704.681 497.707 703.537 497.799 701.977 497.617C693.179 496.272 684.411 494.738 675.679 493.015C665.779 504.185 655.955 515.421 646.207 526.723C636.114 522.306 625.956 518.261 615.938 513.664C616.33 499.526 618.362 485.056 618.585 470.123C611 464.476 603.57 459.481 595.882 453.591C584.587 457.808 565.667 466.242 554.502 471.329C548.129 464.183 539.594 453.352 533.514 445.744C541.439 434.564 549.039 423.157 556.303 411.536C551.102 403.058 546.513 394.295 541.42 385.746C526.621 385.532 511.827 385.042 497.046 384.274C493.317 375.172 490.936 366.98 488.126 357.549C496.186 350.14 514.19 337.515 523.561 330.896C522.354 322.125 521.855 313.023 520.34 304.293C506.74 297.926 493.026 291.803 479.206 285.93C479.684 277.085 480.251 267.121 481.136 258.365C495.401 254.974 510.176 250.962 524.442 247.352C526.506 238.672 530.014 227.925 532.803 219.407C522.886 209.843 512.165 197.372 502.378 187.125C507.144 179.465 510.63 169.764 515.419 161.871C527.891 162.001 545.813 164.084 558.742 165.028C563.255 158.66 569.952 151.052 575.069 144.929C572.717 132.561 565.051 113.478 560.983 101.145C565.149 97.022 576.259 88.6606 581.297 84.4863C587.084 86.5147 594.48 90.4 600.118 93.1843C608.096 97.1238 616.969 101.283 624.549 105.77C632.028 101.649 639.547 98.01 646.992 93.7475C648.48 79.0572 649.998 65.2805 650.86 50.5049C660.249 48.2194 669.595 45.7623 678.894 43.1347C687.345 54.8549 695.854 66.5324 704.423 78.1668L732.525 76.6692C738.92 65.4334 750.087 49.7107 757.352 38.0637Z"/><path fill="white" d="M719.115 93.2882C719.474 93.2529 719.833 93.2252 720.192 93.2053C768.55 90.2657 816.987 108.577 852.897 140.774C892.056 176.055 915.482 225.528 917.959 278.178C921.258 330.514 903.419 381.985 868.441 421.055C833.503 459.785 787.759 479.399 736.082 482.083C676.594 485.853 616.152 458.991 578.839 412.602C554.791 382.704 539.885 344.093 536.847 305.876C532.749 254.095 549.158 202.776 582.536 162.977C618.467 120.845 663.962 97.6243 719.115 93.2882Z"/><path fill="#4596B2" d="M719.517 98.2104C719.751 98.1879 719.985 98.1655 720.22 98.143C767.75 95.3412 812.616 112.076 848.193 143.271C923.049 208.911 936.314 326.928 875.364 406.437C841.642 450.428 792.61 474.949 737.125 477.973C688.9 480.147 643.457 465.846 606.709 434.074C568.133 400.723 545.162 355.603 541.705 304.611C537.758 252.821 554.843 201.624 589.102 162.583C622.159 124.475 669.162 101.274 719.517 98.2104Z"/><path fill="white" d="M717.416 111.293L718.309 111.219C760.904 108.46 802.896 122.429 835.35 150.154C872.677 181.788 895.817 227.024 899.626 275.804C903.136 322.535 888.55 371.132 857.726 406.753C825.363 444.151 784.673 461.335 736.144 464.861C693.729 466.433 651.076 454.765 618.326 427.194C497.209 325.232 558.947 125.325 717.416 111.293Z"/><path fill="#4596B2" d="M794.872 271.709C796.856 271.438 804.527 271.201 806.532 271.609C814.47 273.221 807.653 283.192 811.352 288.082C813.333 290.7 818.885 291.491 822.061 292.213C823.654 289.514 827.543 281.615 830.683 281.092C835.935 282.123 847.112 291.673 850.809 295.732C848.654 300.196 845.547 304.77 842.816 308.954C847.017 313.253 847.512 315.929 851.047 320.093C854.872 319.984 866.282 318.976 868.703 320.66C871.237 325.16 871.61 342.42 871.236 348.11C864.231 349.405 858.905 349.763 851.803 350.025C850.212 354.338 848.757 358.07 846.921 362.281C850.325 365.446 859.371 373.249 860.577 376.855C861.452 379.47 845.26 395.809 842.667 396.442C839.295 397.265 828.678 387.656 826.676 385.444C821.686 388.029 818.719 389.344 813.444 391.441C813.541 396.278 813.038 402.614 812.314 407.392C808.673 408.237 806.019 408.473 802.282 408.852C800.969 406.526 799.663 403.658 798.479 401.224C796.972 398.021 795.289 395.038 793.582 391.941C788.888 390.812 784.348 389.787 779.759 388.26C775.835 392.678 770.618 398.953 765.849 402.122C761.115 399.403 750.97 390.381 747.561 386.08C750.421 379.865 753.212 376.986 757.608 371.824C755.581 368.84 753.873 365.473 752.164 362.278C746.582 361.924 741.351 361.51 735.905 360.204C734.248 355.214 732.168 340.458 733.732 335.816C735.574 333.4 743.903 332.522 747.202 331.926C747.609 327.544 748.98 323.339 750.187 319.102C747.142 314.965 743.541 311.8 739.725 308.402C740.838 305.16 743.624 300.166 745.271 297.058C742.871 294.513 735.726 289.3 735.249 287.93C735.639 286.48 735.688 285.672 736.786 284.661C743.119 291.285 755.16 298.942 763.333 303.396C770.86 296.493 772.611 295.62 781.802 291.041C780.458 285.186 779.677 280.494 777.959 274.577C783.519 272.764 789.077 272.212 794.872 271.709Z"/><path fill="white" d="M797.754 278.707C798.919 278.555 801.748 278.542 803.046 278.496C805.37 299.51 805.058 293.627 823.897 299.936C826.845 296.775 829.159 292.859 831.504 289.204C834.95 291.301 839.164 294.485 842.168 297.179C841.025 300.027 835.181 308.968 836.818 311.437C840.285 316.669 842.737 320.861 845.449 326.571C851.004 326.82 856.782 326.371 862.872 326.67C863.621 330.567 863.719 337.795 863.898 341.988C857.916 342.798 852.337 342.879 845.955 343.869C843.8 352.285 842.855 354.931 838.968 362.612C841.892 367.329 848.47 372.705 852.624 377.438C849.14 381.252 845.383 385.126 841.824 388.893C838.201 385.804 830.149 380.519 825.973 377.881C818.509 382.114 814.828 383.18 806.668 386.093C805.846 389.872 805.975 394.16 805.94 398.067L805.449 398.029C804.59 396.124 801.188 387.85 799.817 387.28C792.873 384.393 782.827 381.814 775.602 379.827C770.726 384.131 768.605 387.256 764.848 392.655C761.809 389.836 758.679 387.116 755.464 384.5C757.925 380.639 762.871 375.374 766.063 371.867C754.045 357.109 762.17 355.656 741.906 354.396C741.174 349.59 740.479 344.778 739.82 339.961C742.924 339.134 752.891 337.761 753.484 334.924C754.88 328.253 755.484 324.797 758.875 318.413C756.35 315.252 749.716 309.361 749.324 306.11L750.035 305.502C754.228 305.455 760.486 308.366 764.584 310.013C768.603 306.607 771.242 304.622 775.815 301.931C779.59 299.71 784.277 297.531 787.542 294.79C788.738 292.174 785.907 283.378 785.115 280.078C789.3 279.323 793.516 279.056 797.754 278.707Z"/><path fill="#4596B2" d="M797.421 311.661C812.661 310.339 826.092 321.611 827.434 336.85C828.775 352.088 817.521 365.534 802.284 366.896C787.019 368.26 773.543 356.98 772.199 341.713C770.855 326.446 782.152 312.985 797.421 311.661Z"/><path fill="white" d="M796.567 318.593C808.041 316.676 818.886 324.456 820.747 335.939C822.609 347.423 814.776 358.23 803.283 360.035C791.87 361.827 781.154 354.06 779.305 342.656C777.457 331.251 785.172 320.497 796.567 318.593Z"/><path fill="#4596B2" d="M683.703 264.919C687.361 266.448 689.685 267.101 693.54 268.162L723.291 367.173C724.74 371.924 732.275 390.89 732.657 393.261L731.243 395.09C732.251 399.748 748.952 393.776 748.446 412.495C738.003 412.584 727.559 412.545 717.117 412.379L719.891 409.261C723.047 405.401 726.939 400.59 729.846 396.48C730.454 395.621 730.11 395.202 729.84 394.471L728.599 394.009C724.355 394.495 713.694 407.618 712.748 411.902C711.517 412.596 708.999 412.107 707.424 411.955C701.527 405.784 701.001 404.179 698.829 395.928C693.324 375.023 692.575 350.328 681.012 331.598C684.809 318.425 689.597 313.471 687.791 298.85C686.409 287.662 685.148 276.149 683.703 264.919Z"/><path fill="#4596B2" d="M704.198 180.219C712.601 180.414 718.512 182.998 727.464 182.888C728.586 187.737 730.09 193.562 733.289 197.414C736.763 201.597 742.13 204.505 745.41 208.852L742.178 219.871C733.753 219.872 730.186 220.614 722.201 223.311C720.743 216.235 722.449 209.783 718.618 202.83C714.98 196.227 707.454 193.431 700.578 191.377C696.075 199.079 689.302 218.929 686.187 227.868C684.574 232.675 682.715 237.309 680.865 242.025C683.127 245.475 684.88 246.898 686.956 250.967C684.78 249.949 682.651 248.834 680.514 247.735C667.792 241.196 654.697 235.515 641.642 229.671C648.827 216.35 659.11 205.401 670.625 195.765C681.954 186.283 689.254 180.913 704.198 180.219Z"/><path fill="#4596B2" d="M643.936 248.169C656.248 253.597 668.623 258.878 681.06 264.012C683.003 277.509 683.962 294.44 685.538 308.372C676.994 312.878 665.453 320.982 657.113 326.528C654.23 328.367 645.832 336.198 643.368 333.156C643.264 330.289 645.378 328.644 647.334 326.49C648.731 315.51 649.112 306.14 647.061 295.226C646.131 290.278 644.072 284.215 644.069 279.382C644.066 274.239 646.116 267.504 647.383 262.362C651.724 262.227 656.064 262.052 660.402 261.837C655.151 260.14 650.292 259.436 644.839 257.454L643.936 248.169Z"/><path fill="#4596B2" d="M684.278 311.96L684.772 312.559C683.231 317.995 679.464 326.012 677.32 331.613C671.286 347.381 665.981 360.412 663.42 377.295C662.552 383.015 660.555 397.672 656.568 400.983C650.206 406.264 639.738 402.862 632.637 402.296L632.03 402.252C630.934 402.194 631.46 402.346 630.529 401.505C628.639 392.332 645.851 349.563 646.083 337.132C657.148 329.705 673.117 318.416 684.278 311.96Z"/><path fill="#4596B2" d="M701.738 195.112C710.282 198.332 716.543 202.975 718.519 212.242C716.066 218.633 705.718 233.82 701.495 240.804C708.689 245.868 734.759 270.168 739.757 277.227C738.933 278.376 737.445 278.832 736.191 279.75L735.376 280.352C733.796 282.095 732.64 283.761 731.263 285.654C717.571 276.203 703.024 268.785 692.273 255.191C688.962 251.005 687.597 245.662 684.175 241.256C690.466 226.25 694.742 211.187 701.738 195.112Z"/><path fill="#4596B2" d="M730.362 156.288C737.474 157.887 746.511 162.004 753.726 164.177C761.561 166.603 769.532 168.327 777.381 170.74C783.28 172.554 787.581 170.345 791.455 176.464C791.591 178.062 791.572 177.947 790.804 179.37C786.802 182.451 779.376 177.515 774.263 177.307L773.614 180.349C772.19 183.292 770.534 186.923 768.148 189.11C755.868 200.364 736.444 198.946 738.986 178.086C739.321 175.338 739.519 171.873 739.624 169.078C732.746 166.571 724.03 165.224 730.362 156.288Z"/><path fill="#4596B2" d="M758.986 135.659C779.43 135.624 787.169 150.6 784.277 169.046C778.477 167.879 774.03 166.607 768.385 164.957C765.261 163.994 736.579 156.09 737.195 152.63C738.924 142.923 749.552 136.797 758.986 135.659Z"/><path fill="#4596B2" d="M737.153 223.69L741.684 223.624C741.465 245.495 743.907 254.171 761.002 268.112C757.881 270.488 753.979 274.736 750.544 276.362C749.971 276.634 749.384 276.058 748.645 275.629C732.169 260.847 726.1 249.333 722.991 227.467C728.472 225.382 731.356 224.29 737.153 223.69Z"/><path fill="#4596B2" d="M642.833 234.616C652.563 239.814 688.537 253.638 693.196 260.317C694.349 261.97 693.87 263.202 693.5 265.019L692.745 265.434C676.139 259.541 656.623 250.845 640.398 243.577C641.868 239.695 642.219 238.633 642.833 234.616Z"/><path fill="#4596B2" d="M783.403 406.239C789.894 404.865 796.265 409.032 797.608 415.53C798.951 422.028 794.753 428.378 788.248 429.689C781.788 430.991 775.491 426.828 774.158 420.375C772.824 413.921 776.956 407.604 783.403 406.239Z"/><path fill="white" d="M785.047 412.457C788.027 411.978 790.831 414.009 791.303 416.991C791.776 419.972 789.738 422.771 786.755 423.237C783.782 423.701 780.994 421.671 780.523 418.699C780.052 415.727 782.076 412.935 785.047 412.457Z"/><path fill="#4596B2" d="M815.852 170.267C822.249 168.849 828.589 172.866 830.04 179.256C831.49 185.646 827.506 192.007 821.123 193.49C814.695 194.984 808.278 190.964 806.817 184.528C805.356 178.092 809.408 171.695 815.852 170.267Z"/><path fill="white" d="M817.634 176.159C819.579 175.82 821.555 176.559 822.8 178.091C824.044 179.624 824.362 181.709 823.632 183.543C822.901 185.377 821.235 186.672 819.278 186.929C816.339 187.314 813.631 185.279 813.184 182.348C812.737 179.418 814.714 176.668 817.634 176.159Z"/><path fill="#4596B2" d="M833.035 238.929C837.068 237.939 841.321 239.199 844.165 242.225C847.009 245.252 848.002 249.575 846.763 253.539C845.525 257.503 842.247 260.492 838.186 261.361C834.254 262.202 830.169 260.931 827.409 258.008C824.649 255.084 823.615 250.933 824.68 247.056C825.786 243.033 828.983 239.924 833.035 238.929Z"/><path fill="white" d="M834.352 245.326C836.048 244.605 838.004 244.88 839.436 246.041C840.868 247.202 841.542 249.059 841.188 250.868C840.834 252.677 839.509 254.142 837.746 254.677C835.212 255.446 832.52 254.099 831.617 251.61C830.713 249.121 831.915 246.361 834.352 245.326Z"/><path fill="#4596B2" d="M764.989 268.989C770.294 273.608 782.684 280.678 776.297 288.01C772.958 291.842 771.764 292.11 766.92 292.894C763.624 292.158 757.192 288.065 755.187 285.364C750.188 278.629 759.825 272.087 764.989 268.989Z"/><path fill="#4596B2" d="M659.714 403.467C667.572 404.42 671.901 407.607 674.154 415.033L645.154 414.908L631.376 414.974C631.356 412.238 631.214 409.624 631.68 406.935C632.996 406.36 634.046 406.776 635.791 407.144C642.537 408.564 653.452 406.147 659.714 403.467Z"/><path fill="#4596B2" d="M745.029 281.823C747.176 282.708 750.91 285.952 752.391 287.852C752.575 289.605 752.749 289.038 752.205 290.533L751.457 290.119C749.387 288.114 742.917 284.876 742.859 282.697L745.029 281.823Z"/><path fill="#FFFFFF" d="M316.392 233.589C317.262 233.828 318.384 234.302 319.012 234.965C335.69 252.586 350.299 272.89 366.718 290.671C381.525 287.103 397.395 284.712 412.458 282.525C415.843 275.516 421.301 261.908 424.603 256.359C427.314 261.315 430.071 269.317 432.127 274.704C436.314 285.676 440.238 296.789 443.435 308.093C439.086 308.013 434.736 308 430.386 308.055C354.019 309.562 284.944 334.167 227.191 384.846C163.562 440.682 125.116 524.378 126.979 609.249C127.466 628.074 129.575 646.823 133.281 665.287C142.574 713.047 158.67 749.005 190.05 786.602C196.614 794.468 202.035 801.064 209.572 808.27C270.729 867.25 352.976 899.253 437.912 897.121C444.866 911.111 452.993 932.367 459.022 947.013C453.37 959.956 447.819 972.942 442.368 985.97C425.854 986.365 405.55 986.115 389.046 984.902C386.472 979.524 381.697 964.39 379.561 957.985C375.162 944.788 369.789 930.348 365.919 917.117C364.913 916.301 361.06 915.685 359.551 915.367C345.895 912.491 332.698 908.59 319.345 904.565C306.39 917.403 292.198 929.569 278.39 941.49C274.94 944.469 271.097 948.046 267.354 950.589C261.155 948.058 225.107 932.356 221.672 928.472C220.362 922.681 226.186 866.593 227.687 857.175C212.218 845.457 204.738 840.049 190.128 826.605C183.17 829.051 127.67 844.446 122.637 844.103C118.444 841.593 95.1563 811.442 92.0319 806.235C93.4865 802.772 100.849 790.781 103.11 787.023C111.361 773.308 119.535 758.329 129.025 745.517C123.751 730.894 118.434 717.295 113.357 702.435L49.4385 691.845C47.5186 691.534 41.6227 690.396 40.9943 688.799C38.1803 681.168 37.7383 672.173 36.3822 664.07C35.4966 658.779 32.3299 647.592 33.4121 643.108C37.3936 637.75 90.4543 609.825 98.4507 605.547C99.168 589.669 100.773 573.844 103.259 558.145C94.2283 553.815 85.3938 546.785 77.2406 540.887C68.1665 534.323 59.3786 527.259 50.2581 520.727C48.618 519.35 42.9487 515.725 43.2266 513.366C44.2231 504.905 48.8745 495.335 51.4568 487.236C53.0392 482.273 55.805 471.175 58.8622 467.975C62.8414 466.3 124.471 466.003 133.206 465.895C138.858 454.938 150.225 435.94 157.417 425.715C149.74 407.188 140.427 389.487 132.035 371.29C130.085 367.061 127.626 362.344 126.354 357.889C132.621 347.81 152.482 328.485 161.445 319.708C162.994 318.191 185.572 329.539 188.889 331.084C202.466 337.406 216.095 343.615 229.774 349.711C242.854 341.867 255.742 333.724 268.874 325.91C268.903 311.145 268.852 296.381 268.721 281.616C268.624 273.903 268.051 259.881 268.906 252.8C273.525 249.574 310.147 235.235 316.392 233.589Z"/><path fill="#FFFFFF" d="M434.676 234.959C436.21 234.954 437.559 234.852 438.803 235.904C444.477 240.702 472.373 307.391 473.292 316.487C473.825 321.764 472.339 327.229 468.819 331.253C466.804 333.556 463.657 336.1 460.714 337.08C451.483 340.152 428.081 338.92 417.177 339.461C343.725 343.108 275.434 374.304 226.022 429.014C178.765 480.83 154.128 549.356 157.573 619.401C160.568 685.888 189.921 748.444 239.142 793.241C295.515 843.991 369.864 870.053 445.586 865.607C448.407 873.552 454.002 885.904 457.435 893.902C475.541 891.512 492.59 889.034 510.34 884.424C628.056 853.855 726.417 759.826 730.196 633.24C760.564 618.581 790.741 603.53 820.72 588.092C831.498 582.47 842.332 576.958 853.222 571.555C858.837 568.715 866.32 564.653 871.975 562.398L874.39 567.156C862.571 573.92 846.592 581.585 834.255 587.882L736.51 637.134C736.615 648.081 734.896 660.468 732.883 671.179C725.947 708.578 710.731 743.95 688.349 774.703C647.955 830.901 585.851 870.092 519.663 888.933C498.243 895.03 481.704 897.078 460.234 900.603C471.015 924.78 480.263 951.191 490.937 974.843C498.645 972.94 506.403 971.249 514.204 969.773C515.789 953.463 517.251 937.142 518.59 920.811C539.944 913.882 554.094 910.04 575.17 901.098C576.755 900.404 578.35 899.731 579.954 899.079C592.742 910.783 606.275 922.79 618.854 934.598C628.113 929.126 639.28 923.485 648.871 918.106C645.133 901.286 641.083 884.205 637.072 867.442C654.863 853.986 668.191 842.89 684.288 827.197C698.343 833.714 719.664 840.948 734.67 846.418C740.519 839.154 749.584 828.217 754.778 820.642C753.173 818.129 751.2 815.32 749.426 812.912C740.692 801.067 732.563 788.211 723.363 776.753C725.295 772.499 729.869 765.906 732.245 761.264C738.585 748.874 745.095 735.679 749.812 722.607C755.445 721.401 765.667 720.526 771.772 719.992C782.106 719.089 793.661 717.841 803.974 717.448C805.994 706.51 808.555 695.199 810.868 684.287C796.201 674.604 780.538 663.582 766.165 653.445L771.876 648.917C787.454 659.83 803.147 669.945 818.828 680.633C815.692 693.176 812.668 710.844 810.252 723.797C791.82 725.182 773.407 726.799 755.016 728.649C748.664 744.55 739.625 761.798 731.244 776.681C741.792 790.829 753.183 806.008 763.138 820.497C754.665 831.892 746.004 843.146 737.159 854.254C719.892 848.448 702.832 842.045 686.01 835.055C672.669 847.304 659.514 859.591 644.809 870.224C648.638 886.553 652.552 905.369 656.941 921.364C643.583 928.59 630.695 935.688 617.18 942.795C606.679 931.337 590.164 918.189 578.414 906.473C564.982 913.885 540.384 921.396 525.591 925.301C524.552 930.146 523.805 939.076 523.295 944.243L520.378 975.112C509.077 977.551 497.806 980.122 486.565 982.825L446.62 885.893C415.026 886.629 388.171 884.996 357.323 877.54C284.412 859.917 215.449 814.71 176.462 749.835C139.118 687.692 127.833 609.647 145.188 539.405C174.116 422.315 271.354 338.578 389.666 321.706C402.973 319.852 416.391 318.914 429.826 318.9C456.28 318.63 460.341 323.896 450.685 294.336C446.887 282.666 442.817 271.087 438.477 259.607C436.272 253.745 432.49 245.212 431.886 239.06C431.718 237.35 433.417 236.085 434.676 234.959Z"/><path fill="#FFFFFF" d="M260.494 594.691C261.944 594.442 264.367 594.458 265.907 594.412C268.542 600.075 271.675 609.407 273.923 615.523C280.126 616.619 283.754 618.249 289.552 620.498C293.574 616.976 298.812 611.842 303.052 609.062C307.034 611.637 316.294 619.993 318.831 623.678C316.048 627.397 312.012 637.132 309.87 641.898C312.162 645.987 313.549 648.592 315.369 652.881C322.2 654.045 331.215 654.586 338.53 655.579C339.213 663.582 339.896 671.332 340.093 679.366C332.871 681.185 326.299 682.162 318.971 683.119C317.597 687.743 315.435 692.248 313.421 696.633C318.154 703.232 323.002 708.304 327.802 715.552C322.357 720.441 317.574 725.425 311.871 730.114C306.828 726.373 301.746 722.685 296.627 719.049C292.222 721.523 288.65 723.018 283.995 724.901C283.265 730.709 282.764 737.176 282.194 743.049L267.895 746.578L261.535 747.748C259.209 740.963 256.059 733.789 253.266 727.171C248.101 725.988 243.282 724.798 238.26 723.066C233.877 727.736 229.951 732.261 225.778 737.118L207.849 724.513C209.958 719.433 213.334 712.854 215.774 707.769C211.861 702.23 209.734 698.679 206.922 692.514C199.906 691.815 193.391 691.604 186.341 691.338C185.059 684.822 183.403 678.307 182.008 671.791C187.353 668.494 197.848 664.115 203.764 661.536C205.195 655.786 206.1 652.275 208.27 646.736C205.298 642.486 200.904 636.018 198.747 631.331C202.868 627.383 207.269 622.576 211.25 618.4L225.97 626.074C230.916 623.029 235.632 619.975 240.899 617.512C242.074 612.547 243.288 602.262 244.055 596.929L260.494 594.691Z"/><path fill="white" d="M295.103 647.927C297.255 650.847 299.353 654.945 300.638 658.343C304.326 668.029 303.897 678.802 299.449 688.164C295.177 697.371 286.49 704.916 276.997 708.357C265.98 712.309 253.842 711.71 243.267 706.692C232.634 701.609 226.839 693.778 223.009 682.944C220.055 672.517 221.244 664.753 224.616 654.686C231.507 659.251 240.396 666.368 247.513 671.398C247.471 673.243 247.261 675.252 247.502 677.073C248.511 684.71 255.143 690.044 262.901 688.519C266.309 687.842 269.302 685.824 271.207 682.919C274.219 678.351 273.592 674.673 272.621 669.8C279.258 664.596 288.933 654.227 295.103 647.927Z"/><path fill="white" d="M257.42 630.673C271.45 629.176 280.506 635.081 290.866 643.478C283.584 650.378 275.702 658.485 268.739 665.693C265.4 663.831 264.55 663.306 260.888 662.297C256.239 663.194 254.863 663.588 250.927 666.534C245.853 661.578 234.481 654.35 227.878 648.589C236.511 639.048 244.229 632.661 257.42 630.673Z"/><path fill="white" d="M259.23 668.691C262.829 668.045 266.298 670.343 267.109 673.908C267.919 677.473 265.783 681.045 262.259 682.018C259.831 682.689 257.23 681.971 255.49 680.149C253.751 678.327 253.153 675.697 253.934 673.302C254.716 670.907 256.751 669.135 259.23 668.691Z"/><path fill="#FFFFFF" d="M863.601 532.422C864.915 532.887 865.977 535.584 866.648 536.936C853.08 545.002 834.694 553.718 820.5 561.184C783.779 580.5 745.822 598.727 709.137 618.027C694.091 610.383 675.52 603.172 661.369 595.02C635.058 607.478 609.358 621.639 582.906 633.963C580.352 632.652 577.563 631.403 574.912 630.278C561.425 624.552 548.4 617.404 534.85 611.897C525.3 626.8 511.624 635.207 493.537 632.389C483.592 630.791 474.696 625.29 468.825 617.106C462.32 608.097 460.663 598.322 462.425 587.558C465.111 577.427 470.444 569.074 479.353 563.314C487.963 557.648 498.489 555.68 508.565 557.853C526.015 561.632 538.91 576.611 539.053 594.587C539.086 598.87 538.399 602.443 537.503 606.615C551.946 613.015 568.306 621.033 582.49 628.106C588.687 625.454 600.331 619.108 606.854 615.858L660.996 588.787C675.862 596.532 693.937 604.349 709.349 611.578C729.431 601.93 750.35 590.706 770.265 580.521C801.515 564.758 832.628 548.724 863.601 532.422Z"/><path fill="white" d="M497.007 573.512C508.929 571.707 520.069 579.877 521.931 591.79C523.793 603.704 515.678 614.883 503.773 616.803C491.787 618.736 480.514 610.553 478.639 598.557C476.764 586.562 485.002 575.329 497.007 573.512Z"/><path fill="#FFFFFF" d="M458.101 377.424C459.945 378.308 460.628 379.347 460.454 381.304C458.106 384.473 404.286 411.272 397.478 414.784C397.489 415.247 397.494 415.711 397.493 416.175C397.458 430.179 393.647 439.126 383.83 448.838L428.906 471.917C453.845 458.631 479.368 446.015 504.302 432.766C505.264 429.932 507.366 424.597 510.378 423.799C523.655 420.283 524.296 447.008 507.706 437.498C492.633 444.587 476.958 453.653 461.82 461.3C451.447 466.566 439.314 473.428 428.957 478.066C417.466 473.545 404.556 465.837 393.4 460.241C388.595 457.831 384.157 455.006 379.115 452.909C374.736 453.954 370.549 455.689 366.121 456.561C349.085 459.916 330.637 449.705 324.129 433.687C320.118 423.845 320.191 412.811 324.332 403.023C328.317 393.746 336.374 386.192 345.783 382.584C355.469 378.874 366.251 379.287 375.625 383.727C387.041 388.997 392.543 397.513 396.642 408.872C417 398.141 437.488 387.658 458.101 377.424Z"/><path fill="white" d="M355.053 397.794C366.659 395.288 378.105 402.645 380.646 414.243C383.187 425.842 375.866 437.311 364.274 439.887C352.634 442.474 341.105 435.114 338.553 423.465C336.001 411.817 343.396 400.31 355.053 397.794Z"/><path fill="#FFFFFF" d="M368.858 568.024C370.191 568.009 371.145 567.812 372.188 568.566C375.402 583.671 375.644 599.772 377.616 615.044C378.359 620.803 382.855 629.324 382.788 634.253C382.693 641.172 381.629 649.427 381.252 656.479C380 679.91 377.688 703.145 374.332 726.377C369.452 725.164 366.014 724.013 361.299 722.381C355.041 719.932 348.591 716.857 342.23 714.269C350.28 679.732 351.985 642.836 358.741 607.898C361.097 595.711 362.459 583.208 364.881 570.953C366.277 569.591 367.2 569.087 368.858 568.024Z"/><path fill="#FFFFFF" d="M473.157 750.723C481.521 750.931 488.202 751.876 495.176 757.011C501.266 761.473 505.299 768.202 506.361 775.677C508.777 791.671 499.573 805.874 483.904 810.009C481.014 810.771 478.23 811.133 475.272 811.536C466.573 811.594 457.624 809.313 450.556 803.809C438.71 794.584 437.516 773.052 447.067 761.745C453.815 753.757 463.026 751.368 473.157 750.723Z"/><path fill="white" d="M471.134 757.04C484.341 755.649 496.183 765.208 497.609 778.412C499.035 791.615 489.507 803.483 476.308 804.943C463.059 806.41 451.137 796.839 449.706 783.586C448.274 770.333 457.877 758.437 471.134 757.04Z"/><path fill="#FFFFFF" d="M329.461 484.017C332.111 484.608 351.162 491.289 356.265 493.743C368.484 499.619 399.11 509.809 406.576 521.827C407.889 523.94 405.222 531.752 404.076 534.28C398.608 546.345 385.142 553.302 373.364 557.794C371.456 558.194 372.052 558.422 370.562 557.925C369.954 555.544 373.951 550.075 373.196 544.914C373.076 541.296 370.435 537.221 367.484 535.143C357.154 527.869 347.244 519.851 336.892 512.64C331.727 509.042 325.069 504.462 318.552 505.081C313.293 505.581 311.34 508.916 308.341 512.75C306.19 507.744 308.237 496.425 309.242 491.166C313.53 488.966 324.375 485.698 329.461 484.017Z"/><path fill="#FFFFFF" d="M416.477 551.483C418.753 554.13 419.943 602.273 420.642 610.434C422.146 627.985 426.205 640.008 430.799 656.768C426.785 649.86 422.828 643.106 419.548 635.814C418.558 633.614 417.574 631.572 416.129 629.63C410.71 626.653 388.516 621.077 381.959 619.523C379.392 609.903 379.148 598.219 377.962 588.206C377.175 581.551 375.97 574.854 375.308 568.281C392.878 564.371 401.504 561.028 416.477 551.483Z"/><path fill="#FFFFFF" d="M383.058 623.079C392.831 624.719 405.088 628.748 414.557 631.96C417.772 639.89 420.138 644.569 424.67 652.177C426.485 655.839 431.089 661.471 432.515 665.028C435.117 671.519 454.276 711.605 447.763 715.571C423.76 723.139 420.068 715.528 414.474 694.679C411.723 684.426 405.741 671.275 401.347 661.47C395.724 648.92 386.87 636.412 383.058 623.079Z"/><path fill="#FFFFFF" d="M319.363 507.445C319.582 507.455 319.802 507.452 320.021 507.473C326.188 508.07 363.274 534.57 367.936 540.152C371.964 544.974 368.769 550.856 366.492 555.735C364.141 560.77 362.988 566.988 359.894 571.549C353.979 580.266 340.611 587.726 335.36 596.618C333.547 599.689 333.75 604.123 333.345 607.593C332.699 607.283 333.045 607.519 332.319 606.798L331.491 607.182L331.366 607.686C330.272 612.052 327.83 621.028 320.337 618.956C317.546 618.184 316.208 615.026 315.15 612.463C319.126 608.779 321.309 607.069 324.543 602.676C326.54 600.295 329.182 600.927 329.674 598.638C328.099 597.427 328.977 597.79 326.898 597.627C322.73 599.287 320.045 604.89 316.544 608.282C311.192 604.849 308.06 604.324 301.866 602.726L304.62 597.267C307.805 598.542 313.485 600.12 316.924 601.193C318.958 597.532 322.119 594.261 324.35 590.601C331.684 578.579 339.132 566.469 345.978 554.17C348.915 548.003 339.201 543.085 335.316 540.188C327.18 534.119 318.445 528.751 311.488 521.372C310.708 520.545 309.426 517.234 308.963 516.081C311.943 511.297 314.511 509.782 319.363 507.445Z"/><path fill="#FFFFFF" d="M596.185 750.781L606.052 750.847C615.84 768.825 625.982 791.118 635.251 809.748L625.939 809.915L618.383 794.807L608.174 794.996C600.323 795.032 592.472 794.926 584.625 794.678L577.202 809.706C574.478 809.805 571.545 809.785 568.807 809.81C575.066 793.909 584.399 777.464 591.254 761.635C592.862 757.923 594.734 754.657 596.185 750.781Z"/><path fill="white" d="M601.081 758.316C605.306 765.461 610.753 779.714 615.512 788.528C610.79 788.633 605.848 788.561 601.106 788.564C596.548 788.527 591.838 788.668 587.268 788.745C591.976 778.874 597.045 768.441 601.081 758.316Z"/><path fill="#FFFFFF" d="M285.772 516.227L291.035 518.121C296.232 527.935 308.432 539.993 315.368 548.769C320.105 554.763 322.756 560.416 325.669 567.414C317.803 578.134 307.516 586.999 300.807 598.689C299.106 601.653 296.792 606.328 294.262 608.255L293.387 608.042C291.627 607.88 290.527 607.59 288.924 608.301C287.424 610.816 289.426 612.564 287.192 614.33C284.756 614.482 283.106 613.62 280.786 612.766L280.844 611.48C281.035 607.686 280.939 606.921 280.463 603.143C289.915 594.618 299.026 572.892 303.987 560.862C307.258 552.931 295.658 543.36 292.005 536.877C288.701 531.014 283.964 523.546 285.772 516.227Z"/><path fill="#FFFFFF" d="M375.676 751.167L382.699 750.954C394.548 765.69 406.72 781.381 419.036 795.596L419.219 751.486L428.048 751.503L427.99 789.006C428.005 795.22 428.396 804.197 427.989 810.085C426.869 810.971 425.527 810.803 424.019 810.872C422.228 810.853 420.269 810.824 419.106 809.398C407.249 794.854 395.233 779.315 383.938 764.392L384.355 810.825L375.701 810.796C376.081 790.838 375.38 770.916 375.676 751.167Z"/><path fill="#FFFFFF" d="M253.733 455.706C263.962 455.779 270.146 459.686 277.231 466.437C265.825 476.694 252.997 486.808 240.969 496.378C237.222 499.206 233.16 502.658 229.478 505.644C220.802 484.164 226.891 457.712 253.733 455.706Z"/><path fill="#FFFFFF" d="M514.166 529.471C520.734 529.787 522.166 531.789 523.481 537.862C546.351 547.535 574.028 560.908 596.58 571.689C607.466 565.696 618.739 560.345 629.79 554.66C639.016 549.914 648.522 545.69 657.707 540.887C658.332 540.56 659.303 536.282 660.225 535.167C665.365 528.948 673.538 533.206 674.441 540.481C674.733 542.902 672.391 545.484 670.939 546.957C665.804 549.771 665.431 547.557 660.418 546.421C656.144 547.345 602.048 574.568 596.875 577.99C587.122 573.837 576.572 568.602 566.937 564.065L521.54 542.91C518.974 544.936 516.693 546.125 513.323 545.217C511.218 544.655 509.453 543.219 508.475 541.272C507.446 539.216 507.349 536.817 508.209 534.685C509.43 531.673 511.374 530.678 514.166 529.471Z"/><path fill="#FFFFFF" d="M564.282 751.023L573.69 750.996C572.643 753.802 570.807 757.45 569.5 760.232C561.64 776.537 553.972 792.933 546.495 809.416L536.609 809.487C530.956 797.371 525.183 785.312 519.29 773.311C517.118 768.8 511.025 756.395 509.945 751.879C511.231 751.24 513.786 751.297 515.324 751.222C517.013 751.067 517.082 750.996 518.812 751.343C520.189 752.88 523.878 762.511 525.159 765.034C530.611 775.777 536.15 790.33 541.996 800.512C548.266 784.908 557.071 766.554 564.282 751.023Z"/><path fill="#FFFFFF" d="M513.128 459.583C527.183 459.548 524.46 481.222 508.932 474.141L508.309 473.851C478.623 489.958 448.285 505.076 418.703 521.188L413.738 523.566L409.448 519.735C416.998 514.764 434.538 506.219 443.264 501.67L506.192 468.705C506.63 463.4 508.091 461.231 513.128 459.583Z"/><path fill="#FFFFFF" d="M513.013 496.042C516.861 496.099 520.067 497.32 521.766 501.05C522.704 503.077 522.771 505.4 521.949 507.477C519.613 513.231 514.285 513.021 509.525 510.603C502.278 514.674 494.175 518.619 486.767 522.528L429.288 552.814C426.984 554.168 424.357 555.382 421.943 556.569L420.111 550.945C428.754 546.117 438.657 541.339 447.567 536.65C467.231 526.158 486.983 515.832 506.821 505.673C506.717 500.106 508.069 498.236 513.013 496.042Z"/><path fill="#FFFFFF" d="M278.231 485.951C280.071 488.167 286.226 501.826 287.449 504.97C284.431 512.244 279.921 518.137 273.04 522.244C268.496 522.123 264.163 522.219 259.826 520.794C256.698 519.063 251.607 513.927 248.821 511.267C259.502 503.905 269.362 495.418 278.231 485.951Z"/><path fill="#FFFFFF" d="M282.228 464.263C284.845 466.242 286.336 468.298 288.288 470.861C282.699 476.45 277.704 482.961 272.538 488.131C262.21 498.467 246.233 510.599 233.135 516.699L231.917 516.618C230.163 514.689 228.881 511.997 227.604 509.668C235.599 505.005 278.2 470.843 282.228 464.263Z"/><path fill="#FFFFFF" d="M231.757 559.576C239.049 559.112 241.961 561.884 245.45 567.814C245.608 570.396 245.476 573.412 245.434 576.03C256.938 580.764 274.136 589.429 284.828 595.386C283.649 596.753 282.381 598.076 281.15 599.399C278.873 598.298 276.438 597.246 274.124 596.201C262.655 591.298 253.61 586.652 242.5 580.915C238.368 583.674 234.378 585.522 229.43 583.497C226.238 582.171 223.724 579.604 222.466 576.385C221.163 573.14 221.316 569.492 222.886 566.368C224.893 562.442 227.777 560.899 231.757 559.576Z"/><path fill="white" d="M231.894 565.743C235.194 564.828 238.62 566.715 239.61 569.993C240.6 573.27 238.791 576.739 235.537 577.803C233.365 578.513 230.978 577.992 229.301 576.44C227.623 574.889 226.917 572.551 227.455 570.33C227.994 568.109 229.692 566.354 231.894 565.743Z"/><path fill="#FFFFFF" d="M420.998 718.01C431.525 722.299 437.992 721.334 449.032 719.409C450.425 723.78 450.501 726.103 450.528 730.566C445.559 731.62 440.058 732.311 435.002 732.945C429.423 733.917 403.341 734.715 402.718 727.644C405.791 721.47 416.37 722.928 420.998 718.01Z"/><path fill="#FFFFFF" d="M410.065 524.285C414.312 527.002 415.83 540.142 416.879 545.432C405.196 555.904 390.594 560.807 375.589 564.387C372.867 564.705 371.565 564.595 369.699 562.371C370.402 560.096 376.311 559.98 378.462 559.127C391.603 553.917 404.796 545.454 408.7 530.988C409.292 528.794 409.513 526.54 410.065 524.285Z"/><path fill="#FFFFFF" d="M247.503 745.767C251.467 744.522 255.794 745.507 258.83 748.345C261.865 751.182 263.139 755.434 262.164 759.473C261.188 763.512 258.115 766.714 254.119 767.854C248.053 769.585 241.722 766.119 239.911 760.076C238.101 754.032 241.484 747.656 247.503 745.767Z"/><path fill="white" d="M249.556 750.695C252.629 750.016 255.679 751.924 256.413 754.984C257.146 758.045 255.293 761.128 252.246 761.916C250.227 762.439 248.082 761.83 246.638 760.325C245.194 758.82 244.674 756.653 245.279 754.656C245.884 752.66 247.519 751.145 249.556 750.695Z"/><path fill="#FFFFFF" d="M339.388 718.989C344.437 719.843 362.684 727.438 364.364 731.549C362.324 733.052 352.89 732.645 349.827 732.663C341.968 732.606 331.411 732.809 323.808 731.604C328.965 727.354 334.158 723.149 339.388 718.989Z"/><path fill="#FFFFFF" d="M295.86 520.859C300.82 522.335 306.248 528.701 309.781 528.327C310.702 527.559 311.27 527.108 312.258 526.433C312.934 526.751 313.432 527.039 314.016 527.5C315.211 528.444 320.819 533.017 321.218 534.3C321.655 535.704 320.9 541.471 321.806 543.417C324.59 549.399 328.643 553.504 329.535 560.287C328.801 562.025 328.99 562.386 327.691 563.35C326.77 562.548 321.693 552.516 319.784 549.811C315.141 543.232 310.596 539.237 305.54 533.276C302.202 529.341 299.551 525.033 295.86 520.859Z"/><path fill="#FFFFFF" d="M305.534 492.693C305.656 492.918 304.67 504.149 304.673 505.764C304.685 513.803 306.998 518.977 309.918 526.188C307.618 524.918 305.051 523.22 302.795 521.808C298.927 519.49 297.738 519.101 294.54 515.933C297.272 507.533 296.828 503.378 296.501 494.701C299.522 494.08 302.534 493.41 305.534 492.693Z"/><path fill="#FFFFFF" d="M287.791 498.024C285.338 494.271 282.504 488.21 282.703 483.684L283.294 483.574C285.624 486.283 289.557 489.44 289.183 493.016C287.669 495.374 287.227 495.246 288.402 497.752C290.351 497.13 290.8 496.456 292.264 495.017C295.084 496.801 293.288 510.803 292.764 514.171C290.948 513.874 289.088 513.538 287.263 513.354C288.469 510.608 289.742 507.804 290.9 505.047L287.791 498.024Z"/></svg>